<svg width="30" height="31" viewBox="0 0 30 31" fill="none" xmlns="http://www.w3.org/2000/svg">
<circle opacity="0.5" cx="15" cy="15.5" r="14.5" fill="white" stroke="#E8E8E8"/>
<path d="M17.8594 15.1068C17.8594 18.7812 14.8693 21.7584 11.1796 21.7584C7.48988 21.7584 4.49982 18.7805 4.49982 15.1068C4.49982 11.433 7.49061 8.45508 11.1796 8.45508C14.8686 8.45508 17.8594 11.433 17.8594 15.1068Z" fill="#E2574C"/>
<path d="M19.2012 8.45508C17.7031 8.45508 16.324 8.95197 15.2095 9.78146L15.2149 9.78212C15.4341 9.99295 15.6759 10.1413 15.8623 10.3841L14.4725 10.406C14.2547 10.6249 14.0562 10.863 13.8691 11.1105H16.32C16.5064 11.3333 16.6788 11.5269 16.8352 11.773H13.4248C13.2999 11.9872 13.1843 12.2073 13.0834 12.4361H17.2234C17.3317 12.6642 17.4286 12.8366 17.5108 13.078H12.8382C12.764 13.3076 12.7006 13.5423 12.6524 13.7818H17.7065C17.756 14.0119 17.794 14.2247 17.8201 14.4416H12.5522C12.5301 14.6605 12.5187 14.8826 12.5187 15.1068H17.8581C17.8581 15.3423 17.8414 15.5605 17.8174 15.772H12.5522C12.5749 15.9975 12.6083 16.219 12.6524 16.4372H17.6985L17.5107 17.0944C17.4352 17.3192 12.8228 17.0944 12.8228 17.0944C12.8936 17.3219 12.9798 17.5427 13.074 17.7582H17.2234C17.1085 18.0003 16.9782 18.1939 16.8346 18.4207H13.4129C13.5479 18.6535 13.6969 18.8757 13.8585 19.0885L16.3201 19.1251C16.1102 19.3758 15.841 19.5268 15.5957 19.7464C15.6091 19.757 15.2035 19.745 14.405 19.7324C15.6198 20.9803 17.3176 21.7585 19.2011 21.7585C22.8915 21.7585 25.8829 18.7805 25.8829 15.1068C25.8829 11.4331 22.8922 8.45508 19.2012 8.45508Z" fill="#F4B459"/>
</svg>
