<svg width="20" height="20" viewBox="0 0 20 20" fill="none" xmlns="http://www.w3.org/2000/svg">
<path d="M7.35355 9.64645C7.15829 9.45118 6.84171 9.45118 6.64645 9.64645C6.45118 9.84171 6.45118 10.1583 6.64645 10.3536L7.35355 9.64645ZM9 12L8.64645 12.3536C8.84171 12.5488 9.15829 12.5488 9.35355 12.3536L9 12ZM13.3536 8.35355C13.5488 8.15829 13.5488 7.84171 13.3536 7.64645C13.1583 7.45118 12.8417 7.45118 12.6464 7.64645L13.3536 8.35355ZM6.64645 10.3536L8.64645 12.3536L9.35355 11.6464L7.35355 9.64645L6.64645 10.3536ZM9.35355 12.3536L13.3536 8.35355L12.6464 7.64645L8.64645 11.6464L9.35355 12.3536ZM18.5 10C18.5 14.6945 14.6945 18.5 10 18.5V19.5C15.2467 19.5 19.5 15.2467 19.5 10H18.5ZM10 18.5C5.30558 18.5 1.5 14.6945 1.5 10H0.5C0.5 15.2467 4.7533 19.5 10 19.5V18.5ZM1.5 10C1.5 5.30558 5.30558 1.5 10 1.5V0.5C4.7533 0.5 0.5 4.7533 0.5 10H1.5ZM10 1.5C14.6945 1.5 18.5 5.30558 18.5 10H19.5C19.5 4.7533 15.2467 0.5 10 0.5V1.5Z" fill="#8DC83E"/>
</svg>
