<svg width="20" height="20" viewBox="0 0 20 20" fill="none" xmlns="http://www.w3.org/2000/svg">
<path d="M5.5 5C5.5 5.27614 5.72386 5.5 6 5.5C6.27614 5.5 6.5 5.27614 6.5 5H5.5ZM6.5 1C6.5 0.723858 6.27614 0.5 6 0.5C5.72386 0.5 5.5 0.723858 5.5 1H6.5ZM13.5 5C13.5 5.27614 13.7239 5.5 14 5.5C14.2761 5.5 14.5 5.27614 14.5 5H13.5ZM14.5 1C14.5 0.723858 14.2761 0.5 14 0.5C13.7239 0.5 13.5 0.723858 13.5 1H14.5ZM5 8.5C4.72386 8.5 4.5 8.72386 4.5 9C4.5 9.27614 4.72386 9.5 5 9.5V8.5ZM15 9.5C15.2761 9.5 15.5 9.27614 15.5 9C15.5 8.72386 15.2761 8.5 15 8.5V9.5ZM6.5 5V1H5.5V5H6.5ZM14.5 5V1H13.5V5H14.5ZM5 9.5H15V8.5H5V9.5ZM3 19.5H17V18.5H3V19.5ZM17 19.5C18.3807 19.5 19.5 18.3807 19.5 17H18.5C18.5 17.8285 17.8285 18.5 17 18.5V19.5ZM19.5 17V5H18.5V17H19.5ZM19.5 5C19.5 3.61929 18.3807 2.5 17 2.5V3.5C17.8285 3.5 18.5 4.17157 18.5 5H19.5ZM17 2.5H3V3.5H17V2.5ZM3 2.5C1.61929 2.5 0.5 3.61929 0.5 5H1.5C1.5 4.17157 2.17157 3.5 3 3.5V2.5ZM0.5 5V17H1.5V5H0.5ZM0.5 17C0.5 18.3807 1.61929 19.5 3 19.5V18.5C2.17157 18.5 1.5 17.8285 1.5 17H0.5Z" fill="#828282"/>
</svg>
