<svg width="20" height="20" viewBox="0 0 20 20" fill="none" xmlns="http://www.w3.org/2000/svg">
<path d="M0.646447 9.64645C0.451184 9.84171 0.451184 10.1583 0.646447 10.3536C0.841709 10.5488 1.15829 10.5488 1.35355 10.3536L0.646447 9.64645ZM3.35355 8.35355C3.54882 8.15829 3.54882 7.84171 3.35355 7.64645C3.15829 7.45118 2.84171 7.45118 2.64645 7.64645L3.35355 8.35355ZM2.64645 7.64645C2.45118 7.84171 2.45118 8.15829 2.64645 8.35355C2.84171 8.54882 3.15829 8.54882 3.35355 8.35355L2.64645 7.64645ZM10 1L10.3536 0.646447C10.1583 0.451184 9.84171 0.451184 9.64645 0.646447L10 1ZM16.6464 8.35355C16.8417 8.54882 17.1583 8.54882 17.3536 8.35355C17.5488 8.15829 17.5488 7.84171 17.3536 7.64645L16.6464 8.35355ZM3.5 8C3.5 7.72386 3.27614 7.5 3 7.5C2.72386 7.5 2.5 7.72386 2.5 8H3.5ZM7 19.5C7.27614 19.5 7.5 19.2761 7.5 19C7.5 18.7239 7.27614 18.5 7 18.5V19.5ZM17.3536 7.64645C17.1583 7.45118 16.8417 7.45118 16.6464 7.64645C16.4512 7.84171 16.4512 8.15829 16.6464 8.35355L17.3536 7.64645ZM18.6464 10.3536C18.8417 10.5488 19.1583 10.5488 19.3536 10.3536C19.5488 10.1583 19.5488 9.84171 19.3536 9.64645L18.6464 10.3536ZM17.5 8C17.5 7.72386 17.2761 7.5 17 7.5C16.7239 7.5 16.5 7.72386 16.5 8H17.5ZM13 18.5C12.7239 18.5 12.5 18.7239 12.5 19C12.5 19.2761 12.7239 19.5 13 19.5V18.5ZM7 18.5C6.72386 18.5 6.5 18.7239 6.5 19C6.5 19.2761 6.72386 19.5 7 19.5V18.5ZM13 19.5C13.2761 19.5 13.5 19.2761 13.5 19C13.5 18.7239 13.2761 18.5 13 18.5V19.5ZM7 18.5C6.72386 18.5 6.5 18.7239 6.5 19C6.5 19.2761 6.72386 19.5 7 19.5V18.5ZM13 19.5C13.2761 19.5 13.5 19.2761 13.5 19C13.5 18.7239 13.2761 18.5 13 18.5V19.5ZM1.35355 10.3536L3.35355 8.35355L2.64645 7.64645L0.646447 9.64645L1.35355 10.3536ZM3.35355 8.35355L10.3536 1.35355L9.64645 0.646447L2.64645 7.64645L3.35355 8.35355ZM9.64645 1.35355L16.6464 8.35355L17.3536 7.64645L10.3536 0.646447L9.64645 1.35355ZM2.5 8V18H3.5V8H2.5ZM2.5 18C2.5 18.8284 3.17158 19.5 4 19.5V18.5C3.72386 18.5 3.5 18.2762 3.5 18H2.5ZM4 19.5H7V18.5H4V19.5ZM16.6464 8.35355L18.6464 10.3536L19.3536 9.64645L17.3536 7.64645L16.6464 8.35355ZM16.5 8V18H17.5V8H16.5ZM16.5 18C16.5 18.2762 16.2762 18.5 16 18.5V19.5C16.8284 19.5 17.5 18.8284 17.5 18H16.5ZM16 18.5H13V19.5H16V18.5ZM7 19.5C7.82842 19.5 8.5 18.8284 8.5 18H7.5C7.5 18.2762 7.27614 18.5 7 18.5V19.5ZM8.5 18V14H7.5V18H8.5ZM8.5 14C8.5 13.7238 8.72384 13.5 9 13.5V12.5C8.17156 12.5 7.5 13.1716 7.5 14H8.5ZM9 13.5H11V12.5H9V13.5ZM11 13.5C11.2762 13.5 11.5 13.7238 11.5 14H12.5C12.5 13.1716 11.8284 12.5 11 12.5V13.5ZM11.5 14V18H12.5V14H11.5ZM11.5 18C11.5 18.8284 12.1716 19.5 13 19.5V18.5C12.7238 18.5 12.5 18.2762 12.5 18H11.5ZM7 19.5H13V18.5H7V19.5Z" fill="#8DC83E"/>
</svg>
