<svg width="20" height="20" viewBox="0 0 20 20" fill="none" xmlns="http://www.w3.org/2000/svg">
<path d="M2.5 2.5C2.70711 2.5 2.875 2.33211 2.875 2.125C2.875 1.91789 2.70711 1.75 2.5 1.75C2.29289 1.75 2.125 1.91789 2.125 2.125C2.125 2.33211 2.29289 2.5 2.5 2.5Z" fill="#828282"/>
<path d="M4.375 2.5C4.58211 2.5 4.75 2.33211 4.75 2.125C4.75 1.91789 4.58211 1.75 4.375 1.75C4.16789 1.75 4 1.91789 4 2.125C4 2.33211 4.16789 2.5 4.375 2.5Z" fill="#828282"/>
<path d="M6.25 2.5C6.45711 2.5 6.625 2.33211 6.625 2.125C6.625 1.91789 6.45711 1.75 6.25 1.75C6.04289 1.75 5.875 1.91789 5.875 2.125C5.875 2.33211 6.04289 2.5 6.25 2.5Z" fill="#828282"/>
<path d="M17.875 4H0.625C0.525544 4 0.430161 3.96049 0.359835 3.89016C0.289509 3.81984 0.25 3.72446 0.25 3.625C0.25 3.52554 0.289509 3.43016 0.359835 3.35984C0.430161 3.28951 0.525544 3.25 0.625 3.25H17.875C17.9745 3.25 18.0698 3.28951 18.1402 3.35984C18.2105 3.43016 18.25 3.52554 18.25 3.625C18.25 3.72446 18.2105 3.81984 18.1402 3.89016C18.0698 3.96049 17.9745 4 17.875 4ZM11.875 14.5C11.7755 14.5 11.6802 14.4605 11.6098 14.3902C11.5395 14.3198 11.5 14.2245 11.5 14.125V12.625C11.5 12.5255 11.5395 12.4302 11.6098 12.3598C11.6802 12.2895 11.7755 12.25 11.875 12.25C11.9745 12.25 12.0698 12.2895 12.1402 12.3598C12.2105 12.4302 12.25 12.5255 12.25 12.625V14.125C12.25 14.2245 12.2105 14.3198 12.1402 14.3902C12.0698 14.4605 11.9745 14.5 11.875 14.5ZM18.6663 17.875C18.729 17.937 18.7679 18.019 18.7761 18.1068C18.7843 18.1946 18.7614 18.2825 18.7113 18.355C18.3326 18.8729 17.8654 19.3197 17.3312 19.675C17.2722 19.7213 17.2 19.7476 17.125 19.75C17.0449 19.7494 16.9671 19.7231 16.903 19.6751C16.8389 19.627 16.7918 19.5597 16.7688 19.4829C16.7457 19.4062 16.7478 19.3241 16.7748 19.2487C16.8018 19.1732 16.8522 19.1084 16.9188 19.0637C17.374 18.7591 17.7735 18.3786 18.1 17.9387C18.1304 17.8939 18.1701 17.8562 18.2164 17.8282C18.2628 17.8002 18.3146 17.7826 18.3685 17.7765C18.4223 17.7705 18.4767 17.7761 18.5281 17.7931C18.5795 17.8101 18.6267 17.8381 18.6663 17.875Z" fill="#828282"/>
<path d="M19.75 13.24V15.1713C19.7509 15.7498 19.6585 16.3247 19.4762 16.8738C19.455 16.9334 19.419 16.9866 19.3715 17.0286C19.3241 17.0705 19.2669 17.0998 19.2051 17.1136C19.1433 17.1275 19.0791 17.1255 19.0183 17.1078C18.9575 17.0901 18.9022 17.0573 18.8575 17.0125C18.8106 16.9636 18.7778 16.9029 18.7626 16.8369C18.7474 16.7709 18.7504 16.702 18.7712 16.6375C18.9228 16.1635 18.9999 15.6689 19 15.1713V13.24C19.0064 13.0937 18.9587 12.9501 18.866 12.8367C18.7734 12.7232 18.6422 12.6479 18.4975 12.625C18.4184 12.6159 18.3383 12.6239 18.2626 12.6485C18.1869 12.6731 18.1174 12.7137 18.0588 12.7675C18.0005 12.8208 17.9541 12.8857 17.9225 12.9581C17.8908 13.0304 17.8747 13.1086 17.875 13.1875C17.875 13.287 17.8355 13.3823 17.7652 13.4527C17.6948 13.523 17.5995 13.5625 17.5 13.5625C17.4005 13.5625 17.3052 13.523 17.2348 13.4527C17.1645 13.3823 17.125 13.287 17.125 13.1875V12.49C17.1314 12.3437 17.0837 12.2001 16.991 12.0867C16.8984 11.9732 16.7672 11.8979 16.6225 11.875C16.5434 11.8659 16.4633 11.8739 16.3876 11.8985C16.3119 11.9231 16.2424 11.9637 16.1837 12.0175C16.1255 12.0708 16.0791 12.1357 16.0475 12.2081C16.0158 12.2804 15.9997 12.3586 16 12.4375C16 12.537 15.9605 12.6323 15.8902 12.7027C15.8198 12.773 15.7245 12.8125 15.625 12.8125C15.5255 12.8125 15.4302 12.773 15.3598 12.7027C15.2895 12.6323 15.25 12.537 15.25 12.4375V12.115C15.2564 11.9687 15.2087 11.8251 15.116 11.7117C15.0234 11.5982 14.8922 11.5229 14.7475 11.5C14.6684 11.4909 14.5883 11.4989 14.5126 11.5235C14.4369 11.5481 14.3674 11.5887 14.3087 11.6425C14.2505 11.6958 14.2041 11.7607 14.1725 11.8331C14.1408 11.9054 14.1247 11.9836 14.125 12.0625C14.125 12.162 14.0855 12.2573 14.0152 12.3277C13.9448 12.398 13.8495 12.4375 13.75 12.4375C13.6505 12.4375 13.5552 12.398 13.4848 12.3277C13.4145 12.2573 13.375 12.162 13.375 12.0625V8.6875C13.3755 8.6083 13.3592 8.5299 13.3272 8.45742C13.2953 8.38495 13.2484 8.32004 13.1896 8.26694C13.1309 8.21384 13.0616 8.17375 12.9862 8.14929C12.9109 8.12483 12.8312 8.11655 12.7525 8.125C12.6078 8.14789 12.4766 8.22324 12.384 8.33666C12.2913 8.45009 12.2436 8.59366 12.25 8.74V12.625C12.25 12.7245 12.2105 12.8198 12.1402 12.8902C12.0698 12.9605 11.9745 13 11.875 13C11.7755 13 11.6802 12.9605 11.6098 12.8902C11.5395 12.8198 11.5 12.7245 11.5 12.625C11.5001 12.4741 11.4698 12.3246 11.4109 12.1856C11.3521 12.0466 11.2658 11.9209 11.1573 11.8159C11.0489 11.711 10.9204 11.6289 10.7795 11.5746C10.6387 11.5203 10.4884 11.495 10.3375 11.5C10.2447 11.5093 10.1587 11.5529 10.0963 11.6223C10.0339 11.6916 9.99953 11.7817 10 11.875V15.1713C9.99961 15.9413 10.1894 16.6995 10.5525 17.3785C10.9155 18.0576 11.4407 18.6364 12.0812 19.0637C12.154 19.1224 12.2023 19.206 12.2166 19.2984C12.2309 19.3907 12.2102 19.485 12.1586 19.5629C12.107 19.6408 12.0282 19.6966 11.9376 19.7194C11.8469 19.7423 11.7511 19.7304 11.6687 19.6863C10.9262 19.1934 10.3168 18.5247 9.89488 17.7397C9.47292 16.9546 9.2514 16.0775 9.25 15.1863V11.875C9.24959 11.5867 9.35984 11.3093 9.55801 11.1C9.75619 10.8907 10.0272 10.7654 10.315 10.75C10.7411 10.7366 11.1591 10.8689 11.5 11.125V8.74C11.4944 8.40759 11.6113 8.08474 11.8285 7.833C12.0457 7.58126 12.3479 7.41824 12.6775 7.375C12.861 7.35543 13.0465 7.37488 13.2219 7.43207C13.3974 7.48926 13.5587 7.5829 13.6954 7.70684C13.8321 7.83078 13.941 7.98222 14.0151 8.15123C14.0891 8.32024 14.1266 8.50299 14.125 8.6875V10.8775C14.3419 10.7734 14.5828 10.7294 14.8225 10.75C15.0201 10.7731 15.2099 10.8407 15.3775 10.9479C15.5451 11.0551 15.6862 11.199 15.79 11.3688C15.9571 11.2466 16.151 11.1662 16.3554 11.134C16.5599 11.1019 16.7691 11.1189 16.9657 11.1838C17.1622 11.2488 17.3404 11.3596 17.4855 11.5072C17.6306 11.6548 17.7384 11.8349 17.8 12.0325C18.0359 11.9036 18.305 11.8488 18.5725 11.875C18.9021 11.9182 19.2043 12.0813 19.4215 12.333C19.6387 12.5847 19.7556 12.9076 19.75 13.24ZM0.625 8.5C0.525544 8.5 0.430161 8.46049 0.359835 8.39017C0.289509 8.31984 0.25 8.22446 0.25 8.125V1.75C0.25 1.35218 0.408035 0.970644 0.68934 0.68934C0.970644 0.408035 1.35218 0.25 1.75 0.25H8.875C8.97446 0.25 9.06984 0.289509 9.14016 0.359835C9.21049 0.430161 9.25 0.525544 9.25 0.625C9.25 0.724456 9.21049 0.819839 9.14016 0.890165C9.06984 0.960491 8.97446 1 8.875 1H1.75C1.55109 1 1.36032 1.07902 1.21967 1.21967C1.07902 1.36032 1 1.55109 1 1.75V8.125C1 8.22446 0.960491 8.31984 0.890165 8.39017C0.819839 8.46049 0.724456 8.5 0.625 8.5Z" fill="#828282"/>
<path d="M10 14.125C10 14.2245 9.96049 14.3198 9.89017 14.3902C9.81984 14.4605 9.72446 14.5 9.625 14.5H1.75C1.35218 14.5 0.970644 14.342 0.68934 14.0607C0.408035 13.7794 0.25 13.3978 0.25 13V9.625C0.25 9.52554 0.289509 9.43016 0.359835 9.35983C0.430161 9.28951 0.525544 9.25 0.625 9.25C0.724456 9.25 0.819839 9.28951 0.890165 9.35983C0.960491 9.43016 1 9.52554 1 9.625V13C1 13.1989 1.07902 13.3897 1.21967 13.5303C1.36032 13.671 1.55109 13.75 1.75 13.75H9.625C9.72446 13.75 9.81984 13.7895 9.89017 13.8598C9.96049 13.9302 10 14.0255 10 14.125Z" fill="#828282"/>
<path d="M10.75 0.625C10.75 0.417893 10.5821 0.25 10.375 0.25C10.1679 0.25 10 0.417893 10 0.625C10 0.832107 10.1679 1 10.375 1C10.5821 1 10.75 0.832107 10.75 0.625Z" fill="#828282"/>
<path d="M18.25 1.75V12.4375C18.25 12.537 18.2105 12.6323 18.1402 12.7027C18.0698 12.773 17.9745 12.8125 17.875 12.8125C17.7755 12.8125 17.6802 12.773 17.6098 12.7027C17.5395 12.6323 17.5 12.537 17.5 12.4375V1.75C17.5 1.55109 17.421 1.36032 17.2803 1.21967C17.1397 1.07902 16.9489 1 16.75 1H11.875C11.7755 1 11.6802 0.960491 11.6098 0.890165C11.5395 0.819839 11.5 0.724456 11.5 0.625C11.5 0.525544 11.5395 0.430161 11.6098 0.359835C11.6802 0.289509 11.7755 0.25 11.875 0.25H16.75C17.1478 0.25 17.5294 0.408035 17.8107 0.68934C18.092 0.970644 18.25 1.35218 18.25 1.75Z" fill="#828282"/>
<path d="M14.9913 8.875H13.75C13.6505 8.875 13.5552 8.83549 13.4848 8.76517C13.4145 8.69484 13.375 8.59946 13.375 8.5C13.375 8.40054 13.4145 8.30516 13.4848 8.23483C13.5552 8.16451 13.6505 8.125 13.75 8.125H15.01C15.1785 8.12562 15.3414 8.06422 15.4675 7.9525C15.5204 7.90494 15.5633 7.84726 15.5936 7.78285C15.6239 7.71844 15.6409 7.64861 15.6437 7.5775C15.641 7.496 15.6217 7.41591 15.587 7.34213C15.5522 7.26834 15.5028 7.20242 15.4417 7.14837C15.3807 7.09432 15.3092 7.05329 15.2318 7.02778C15.1543 7.00227 15.0725 6.99282 14.9913 7H11.7587C11.5902 6.99938 11.4274 7.06078 11.3013 7.1725C11.2483 7.22006 11.2054 7.27774 11.1752 7.34215C11.1449 7.40656 11.1278 7.47639 11.125 7.5475C11.1279 7.6273 11.1466 7.70573 11.1802 7.77819C11.2138 7.85065 11.2615 7.91567 11.3205 7.96946C11.3795 8.02325 11.4487 8.06471 11.5239 8.09142C11.5992 8.11813 11.679 8.12954 11.7587 8.125H11.905C12.0045 8.125 12.0998 8.16451 12.1702 8.23483C12.2405 8.30516 12.28 8.40054 12.28 8.5C12.28 8.59946 12.2405 8.69484 12.1702 8.76517C12.0998 8.83549 12.0045 8.875 11.905 8.875H11.7587C11.4016 8.88308 11.0557 8.74965 10.7965 8.5038C10.5373 8.25794 10.3858 7.91959 10.375 7.5625C10.377 7.38615 10.415 7.21206 10.4865 7.05087C10.5581 6.88968 10.6618 6.74477 10.7913 6.625C11.0554 6.38317 11.4007 6.24934 11.7587 6.25H14.9913C15.3484 6.24192 15.6943 6.37535 15.9535 6.6212C16.2127 6.86706 16.3642 7.20541 16.375 7.5625C16.373 7.73885 16.335 7.91294 16.2635 8.07413C16.1919 8.23532 16.0882 8.38023 15.9587 8.5C15.6946 8.74183 15.3493 8.87566 14.9913 8.875ZM8.875 9.625H2.5C2.40054 9.625 2.30516 9.58549 2.23484 9.51517C2.16451 9.44484 2.125 9.34946 2.125 9.25V5.5C2.125 5.40054 2.16451 5.30516 2.23484 5.23483C2.30516 5.16451 2.40054 5.125 2.5 5.125H8.875C8.97446 5.125 9.06984 5.16451 9.14017 5.23483C9.21049 5.30516 9.25 5.40054 9.25 5.5V9.25C9.25 9.34946 9.21049 9.44484 9.14017 9.51517C9.06984 9.58549 8.97446 9.625 8.875 9.625ZM2.875 8.875H8.5V5.875H2.875V8.875ZM8.5 11.125H2.875C2.77554 11.125 2.68016 11.0855 2.60984 11.0152C2.53951 10.9448 2.5 10.8495 2.5 10.75C2.5 10.6505 2.53951 10.5552 2.60984 10.4848C2.68016 10.4145 2.77554 10.375 2.875 10.375H8.5C8.59946 10.375 8.69484 10.4145 8.76517 10.4848C8.83549 10.5552 8.875 10.6505 8.875 10.75C8.875 10.8495 8.83549 10.9448 8.76517 11.0152C8.69484 11.0855 8.59946 11.125 8.5 11.125ZM6.25 12.625H2.875C2.77554 12.625 2.68016 12.5855 2.60984 12.5152C2.53951 12.4448 2.5 12.3495 2.5 12.25C2.5 12.1505 2.53951 12.0552 2.60984 11.9848C2.68016 11.9145 2.77554 11.875 2.875 11.875H6.25C6.34946 11.875 6.44484 11.9145 6.51517 11.9848C6.58549 12.0552 6.625 12.1505 6.625 12.25C6.625 12.3495 6.58549 12.4448 6.51517 12.5152C6.44484 12.5855 6.34946 12.625 6.25 12.625Z" fill="#828282"/>
</svg>
