<?xml version="1.0" encoding="utf-8"?>
<!-- Generator: Adobe Illustrator 26.2.0, SVG Export Plug-In . SVG Version: 6.00 Build 0)  -->
<svg version="1.1" id="Layer_1" xmlns="http://www.w3.org/2000/svg" xmlns:xlink="http://www.w3.org/1999/xlink" x="0px" y="0px"
	 viewBox="0 0 341.8 137.2" style="enable-background:new 0 0 341.8 137.2;" xml:space="preserve">
<style type="text/css">
	.st0{opacity:0.302;enable-background:new    ;}
	.st1{fill:#B3B3B3;}
	.st2{enable-background:new    ;}
	.st3{fill:#DFDFDF;}
	.st4{fill:#F3F3F3;}
	.st5{fill:#CCCCCC;}
</style>
<g class="st0">
	<path class="st1" d="M135.6,137.2L0,135.7L1.5,0l136.1,1.6L135.6,137.2z M10.1,125.8l115.7,1.3l1.7-115.7L11.4,10.1L10.1,125.8z"/>
</g>
<g class="st2">
	<path class="st3" d="M191.8,0.9h13.7v56.3h-13.7l-22.9-35.4v35.4h-13.7V0.9h13.7l22.9,35.4V0.9z"/>
	<path class="st3" d="M222.5,49.6c-5.6-5.4-8.4-12.3-8.4-20.6c0-8.3,2.8-15.2,8.4-20.6c5.6-5.4,12.4-8.1,20.5-8.1
		c8.1,0,14.9,2.7,20.4,8.1c5.5,5.4,8.3,12.3,8.3,20.6c0,8.3-2.8,15.2-8.3,20.6c-5.5,5.4-12.3,8.2-20.4,8.2
		C234.9,57.8,228.1,55,222.5,49.6z M253.7,40.7c2.7-2.9,4-6.9,4-11.8c0-4.9-1.3-8.8-4-11.8c-2.7-2.9-6.3-4.4-10.8-4.4
		c-4.5,0-8.1,1.5-10.8,4.4c-2.7,2.9-4,6.9-4,11.8c0,4.9,1.3,8.8,4,11.8c2.7,2.9,6.3,4.4,10.8,4.4C247.4,45.1,251,43.7,253.7,40.7z"
		/>
</g>
<g class="st2">
	<path class="st3" d="M174.7,80.9c0,1.7-0.6,3.3-1.8,4.9c-0.6,0.8-1.6,1.5-2.9,2c-1.3,0.5-2.8,0.8-4.6,0.8h-3.8v9.8h-6.2V73.2h10
		c2.9,0,5.2,0.8,6.8,2.3C173.9,77,174.7,78.8,174.7,80.9z M161.6,84h3.8c0.9,0,1.7-0.3,2.2-0.8c0.5-0.6,0.8-1.3,0.8-2.2
		c0-0.9-0.3-1.6-0.8-2.2c-0.6-0.6-1.3-0.9-2.2-0.9h-3.8V84z"/>
	<path class="st3" d="M184.6,88.6v9.8h-6.2V73.2h10c2.9,0,5.2,0.8,6.8,2.3c1.6,1.5,2.4,3.3,2.4,5.5c0,1.5-0.4,2.9-1.3,4.3
		c-0.9,1.4-2.3,2.4-4.4,3l6.2,10.3H191l-5.7-9.8H184.6z M184.6,77.9V84h3.8c0.9,0,1.7-0.3,2.2-0.8c0.5-0.6,0.8-1.3,0.8-2.2
		c0-0.9-0.3-1.6-0.8-2.2c-0.6-0.6-1.3-0.9-2.2-0.9H184.6z"/>
	<path class="st3" d="M204.7,95c-2.5-2.4-3.8-5.5-3.8-9.3s1.3-6.8,3.8-9.3c2.5-2.4,5.6-3.7,9.2-3.7c3.6,0,6.7,1.2,9.2,3.7
		c2.5,2.4,3.7,5.5,3.7,9.3s-1.2,6.8-3.7,9.3s-5.6,3.7-9.2,3.7C210.3,98.7,207.2,97.5,204.7,95z M218.8,91c1.2-1.3,1.8-3.1,1.8-5.3
		s-0.6-4-1.8-5.3c-1.2-1.3-2.8-2-4.9-2c-2,0-3.6,0.7-4.9,2c-1.2,1.3-1.8,3.1-1.8,5.3s0.6,4,1.8,5.3c1.2,1.3,2.8,2,4.9,2
		C215.9,93,217.6,92.4,218.8,91z"/>
	<path class="st3" d="M250.1,80.9c0,1.7-0.6,3.3-1.8,4.9c-0.6,0.8-1.6,1.5-2.9,2c-1.3,0.5-2.8,0.8-4.6,0.8H237v9.8h-6.2V73.2h10
		c2.9,0,5.2,0.8,6.8,2.3C249.3,77,250.1,78.8,250.1,80.9z M237,84h3.8c0.9,0,1.7-0.3,2.2-0.8c0.5-0.6,0.8-1.3,0.8-2.2
		c0-0.9-0.3-1.6-0.8-2.2c-0.6-0.6-1.3-0.9-2.2-0.9H237V84z"/>
	<path class="st3" d="M269.1,73.1v4.7h-9.1v5.4h8.1v4.7h-8.1v5.9h9.1v4.7h-15.3V73.1H269.1z"/>
	<path class="st3" d="M280.5,88.6v9.8h-6.2V73.2h10c2.9,0,5.2,0.8,6.8,2.3s2.4,3.3,2.4,5.5c0,1.5-0.4,2.9-1.3,4.3
		c-0.9,1.4-2.3,2.4-4.4,3l6.2,10.3h-7.2l-5.7-9.8H280.5z M280.5,77.9V84h3.8c0.9,0,1.7-0.3,2.2-0.8c0.5-0.6,0.8-1.3,0.8-2.2
		c0-0.9-0.3-1.6-0.8-2.2c-0.6-0.6-1.3-0.9-2.2-0.9H280.5z"/>
	<path class="st3" d="M296.7,77.9v-4.7h19.9v4.7h-6.9v20.6h-6.2V77.9H296.7z"/>
	<path class="st3" d="M333.1,98.5h-6.2v-8.1l-8.7-17.1h7l4.9,11.4l4.8-11.4h7l-8.7,17.1V98.5z"/>
</g>
<g class="st2">
	<path class="st3" d="M155.8,136.9v-25.3h16.5v4.7H162v5.4h7.7v4.7H162v10.5H155.8z"/>
	<path class="st3" d="M178.8,133.5c-2.5-2.4-3.8-5.5-3.8-9.3s1.3-6.8,3.8-9.3c2.5-2.4,5.6-3.7,9.2-3.7c3.6,0,6.7,1.2,9.2,3.7
		c2.5,2.4,3.7,5.5,3.7,9.3s-1.2,6.8-3.7,9.3s-5.6,3.7-9.2,3.7C184.4,137.2,181.3,136,178.8,133.5z M192.8,129.5
		c1.2-1.3,1.8-3.1,1.8-5.3s-0.6-4-1.8-5.3c-1.2-1.3-2.8-2-4.9-2c-2,0-3.6,0.7-4.9,2c-1.2,1.3-1.8,3.1-1.8,5.3s0.6,4,1.8,5.3
		c1.2,1.3,2.8,2,4.9,2C190,131.5,191.6,130.8,192.8,129.5z"/>
	<path class="st3" d="M204.8,126.7v-15.1h6.2v15.1c0,1.5,0.4,2.7,1.1,3.5c0.7,0.8,1.8,1.2,3.3,1.2s2.5-0.4,3.3-1.2
		c0.8-0.8,1.2-2,1.2-3.5v-15.1h6.2v15.1c0,2.2-0.5,4.2-1.6,5.8s-2.4,2.8-4,3.5c-1.6,0.7-3.3,1.1-5.2,1.1c-2.9,0-5.4-0.9-7.4-2.7
		C205.8,132.6,204.8,130.1,204.8,126.7z"/>
	<path class="st3" d="M247.6,111.6h6.2v25.3h-6.2L237.3,121v15.9h-6.2v-25.3h6.2l10.3,15.9V111.6z"/>
	<path class="st3" d="M268.1,111.7c4,0,7.3,1.2,9.9,3.5c2.6,2.3,3.9,5.4,3.9,9.1c0,3.7-1.3,6.8-3.9,9.1c-2.6,2.4-5.9,3.5-9.9,3.5
		h-8.9v-25.3H268.1z M265.4,132.3h2.7c2.4,0,4.2-0.7,5.5-2.2c1.3-1.4,2-3.4,2-5.8s-0.7-4.4-2-5.8c-1.3-1.4-3.2-2.2-5.5-2.2h-2.7
		V132.3z"/>
</g>
<g>
	<path class="st4" d="M108,52.3L76.8,21.2c-2.3-2.3-5.2-3.4-8.1-3.4c-2.9,0-5.9,1.1-8.1,3.4l-32.1,32c-2.6,2.6-4.1,6.2-4.1,9.9v6
		c0,3.7,1.5,7.3,4.1,9.9l34.7,34.7c2.6,2.6,6.2,4.1,9.9,4.1h28.4c6.3,0,11.5-5.1,11.5-11.5V64.4C113,59.9,111.2,55.5,108,52.3z"/>
	<path class="st5" d="M76.8,21.2c-2.3-2.3-5.2-3.4-8.1-3.4c-2.9,0-5.9,1.1-8.1,3.4l-32.1,32c-2.6,2.6-4.1,6.2-4.1,9.9v0.1
		c0,3.3,2.7,6,6,6H67c3.3,0,6,2.7,6,6v31.1c0,6.4,5.2,11.5,11.5,11.5h17c6.3,0,11.5-5.1,11.5-11.5V64.4c0-4.5-1.8-8.8-5-12
		L76.8,21.2z"/>
</g>
</svg>
